<svg width="105" height="101" viewBox="0 0 105 101" fill="none" xmlns="http://www.w3.org/2000/svg">
<rect width="105" height="75" rx="15" fill="#40060B"/>
<path d="M53.7987 97.3005C53.0691 98.8011 50.9309 98.8011 50.2013 97.3005L39.5411 75.3745C38.8953 74.0461 39.8628 72.5 41.3398 72.5H62.6602C64.1372 72.5 65.1047 74.0461 64.4589 75.3745L53.7987 97.3005Z" fill="#40060B"/>
<path d="M26.92 48.4C25.64 48.4 24.52 48.24 23.56 47.92C22.6 47.5733 21.7333 47.0667 20.96 46.4L20.64 48H15.04V21.04H21.48V29.92C22.2 29.4933 23.0133 29.1733 23.92 28.96C24.8267 28.7467 25.76 28.64 26.72 28.64C29.4933 28.64 31.68 29.4133 33.28 30.96C34.88 32.48 35.68 34.9467 35.68 38.36C35.68 41.7733 34.8933 44.3067 33.32 45.96C31.7467 47.5867 29.6133 48.4 26.92 48.4ZM25.08 43.72C26.52 43.72 27.5467 43.2933 28.16 42.44C28.8 41.56 29.12 40.2133 29.12 38.4C29.12 36.5333 28.7867 35.2267 28.12 34.48C27.48 33.7333 26.4667 33.36 25.08 33.36C23.56 33.36 22.36 33.76 21.48 34.56V42.28C22.44 43.24 23.64 43.72 25.08 43.72ZM44.7863 48.4C42.7063 48.4 41.2129 47.9467 40.3063 47.04C39.3996 46.1333 38.9463 44.68 38.9463 42.68V21.04H45.3863V42.04C45.3863 42.6533 45.5063 43.08 45.7463 43.32C46.0129 43.5333 46.3996 43.64 46.9062 43.64C47.6263 43.64 48.2663 43.5467 48.8263 43.36V47.72C48.2129 47.96 47.5996 48.1333 46.9863 48.24C46.3996 48.3467 45.6663 48.4 44.7863 48.4ZM61.1309 48.4C57.4776 48.4 54.7843 47.56 53.0509 45.88C51.3176 44.1733 50.4509 41.72 50.4509 38.52C50.4509 35.3467 51.3176 32.9067 53.0509 31.2C54.8109 29.4933 57.5043 28.64 61.1309 28.64C64.7843 28.64 67.4776 29.4933 69.2109 31.2C70.9709 32.9067 71.8509 35.3467 71.8509 38.52C71.8509 41.72 70.9843 44.1733 69.2509 45.88C67.5176 47.56 64.8109 48.4 61.1309 48.4ZM61.1309 43.36C62.6243 43.36 63.6909 42.9867 64.3309 42.24C64.9709 41.4933 65.2909 40.2533 65.2909 38.52C65.2909 36.7867 64.9709 35.5467 64.3309 34.8C63.6909 34.0533 62.6243 33.68 61.1309 33.68C59.6643 33.68 58.6109 34.0533 57.9709 34.8C57.3309 35.5467 57.0109 36.7867 57.0109 38.52C57.0109 40.2533 57.3309 41.4933 57.9709 42.24C58.6109 42.9867 59.6643 43.36 61.1309 43.36ZM83.2781 55.04C82.3448 55.04 81.3581 55 80.3181 54.92C79.2781 54.84 78.2915 54.72 77.3581 54.56C76.4248 54.4 75.6248 54.2133 74.9581 54V49.6C76.0248 49.9467 77.3048 50.2133 78.7981 50.4C80.2915 50.5867 81.6648 50.68 82.9181 50.68C84.5448 50.68 85.7581 50.5867 86.5581 50.4C87.3848 50.24 87.7981 49.9467 87.7981 49.52C87.7981 49.1467 87.6381 48.8933 87.3181 48.76C86.9981 48.6267 86.3715 48.56 85.4381 48.56H80.1981C78.4915 48.56 77.1581 48.2533 76.1981 47.64C75.2648 47.0267 74.7981 46.1333 74.7981 44.96C74.7981 44.16 75.0381 43.4 75.5181 42.68C76.0248 41.96 76.7581 41.4267 77.7181 41.08C76.6248 40.52 75.7981 39.8133 75.2381 38.96C74.6781 38.1067 74.3981 37.0267 74.3981 35.72C74.3981 33.2667 75.1848 31.48 76.7581 30.36C78.3581 29.2133 80.6915 28.64 83.7581 28.64C84.3981 28.64 85.1048 28.6933 85.8781 28.8C86.6781 28.88 87.2648 28.96 87.6381 29.04H94.9181L94.7581 33.04H91.9981C92.6648 33.7067 92.9981 34.6933 92.9981 36C92.9981 37.84 92.3981 39.32 91.1981 40.44C90.0248 41.56 88.2381 42.12 85.8381 42.12C85.4381 42.12 85.0381 42.1067 84.6381 42.08C84.2648 42.0267 83.8915 41.9867 83.5181 41.96C82.8248 42.04 82.2248 42.1867 81.7181 42.4C81.2381 42.6133 80.9981 42.92 80.9981 43.32C80.9981 43.64 81.1181 43.8533 81.3581 43.96C81.6248 44.0667 82.0115 44.12 82.5181 44.12H87.3581C89.3048 44.12 90.8115 44.5733 91.8781 45.48C92.9715 46.36 93.5181 47.6533 93.5181 49.36C93.5181 53.1467 90.1048 55.04 83.2781 55.04ZM83.7981 38.56C85.2115 38.56 86.1848 38.32 86.7181 37.84C87.2515 37.36 87.5181 36.56 87.5181 35.44C87.5181 34.32 87.2381 33.5067 86.6781 33C86.1448 32.4933 85.1848 32.24 83.7981 32.24C82.4915 32.24 81.5448 32.4933 80.9581 33C80.3981 33.48 80.1181 34.2933 80.1181 35.44C80.1181 36.5067 80.3848 37.2933 80.9181 37.8C81.4515 38.3067 82.4115 38.56 83.7981 38.56Z" fill="white"/>
</svg>
