<svg xmlns="http://www.w3.org/2000/svg" width="162" height="23" viewBox="0 0 162 23">
  <defs>
    <style>
      .cls-1 {
        fill: #fff;
        fill-rule: evenodd;
      }
    </style>
  </defs>
  <path id="Shape_1_copy" data-name="Shape 1 copy" class="cls-1" d="M14.1,13.85c0,2.894-1.7,5.24-4.864,5.24S4.37,16.744,4.37,13.85v-4.7c0-2.894,1.7-5.24,4.864-5.24S14.1,6.251,14.1,9.145v4.7ZM9.234,0.01c-6.012,0-9.242,3.893-9.242,8.7v5.582c0,4.8,3.23,8.7,9.242,8.7s9.242-3.894,9.242-8.7V8.706c0-4.8-3.23-8.7-9.242-8.7M97.48,13.85c0,2.894-1.7,5.24-4.864,5.24s-4.864-2.346-4.864-5.24v-4.7c0-2.894,1.7-5.24,4.864-5.24s4.864,2.346,4.864,5.24v4.7ZM92.616,0.01c-6.012,0-9.242,3.893-9.242,8.7v5.582c0,4.8,3.23,8.7,9.242,8.7s9.242-3.894,9.242-8.7V8.706c0-4.8-3.23-8.7-9.242-8.7m33.666,13.5c0,3.011-1.572,5.24-4.864,5.24h-3.47V4.246h3.469c3.293,0,4.865,2.228,4.865,5.24V13.51ZM121.045,0.349H113.57v22.3h7.475c6.508,0,9.614-3.7,9.614-8.7v-4.9c0-5-3.106-8.7-9.614-8.7M35.2,18.749V0.35H30.825v22.3H44.839v-3.9H35.2Zm27.357-7.911v2.637h5.364V13.85c0,2.894-1.7,5.24-4.864,5.24S58.2,16.744,58.2,13.85v-4.7c0-2.894,1.7-5.24,4.865-5.24,3,0,4.386,1.446,4.738,3.988h4.3C71.744,3.33,68.912.01,63.061,0.01c-6.013,0-9.242,3.893-9.242,8.7v5.582c0,4.8,3.23,8.7,9.242,8.7s9.242-3.894,9.242-8.7v-3.45H62.561Zm76.448,11.807h4.723L150.509,5.87l6.774,16.775h4.724l-9.224-22.3h-4.55Z"/>
</svg>
