<svg xmlns="http://www.w3.org/2000/svg" width="440" height="64" viewBox="0 0 440 64">
  <defs>
    <style>
      .cls-1 {
        fill: #40060b;
        fill-rule: evenodd;
      }
    </style>
  </defs>
  <path id="Shape_1_copy_2" data-name="Shape 1 copy 2" class="cls-1" d="M38.32,38.555c0,8.063-4.616,14.6-13.21,14.6S11.9,46.618,11.9,38.555V25.448c0-8.063,4.618-14.6,13.211-14.6s13.21,6.536,13.21,14.6V38.555ZM25.11-.006C8.782-.006.01,10.842,0.01,24.223V39.777c0,13.381,8.772,24.229,25.1,24.229s25.1-10.847,25.1-24.229V24.223c0-13.381-8.772-24.229-25.1-24.229m239.66,38.56c0,8.063-4.617,14.6-13.211,14.6s-13.21-6.537-13.21-14.6V25.448c0-8.063,4.617-14.6,13.21-14.6s13.211,6.536,13.211,14.6V38.555ZM251.559-.006c-16.327,0-25.1,10.848-25.1,24.229V39.777c0,13.381,8.772,24.229,25.1,24.229s25.1-10.847,25.1-24.229V24.223c0-13.381-8.772-24.229-25.1-24.229M342.99,37.608c0,8.39-4.269,14.6-13.21,14.6l0,0h-9.419V11.8h9.419c8.943,0,13.212,6.208,13.212,14.6V37.608ZM328.768,0.941h-20.3V63.059h20.3c17.676,0,26.11-10.3,26.11-24.229V25.17c0-13.925-8.434-24.229-26.11-24.229M95.638,52.2V0.942H83.748V63.059h38.057V52.2H95.638Zm74.3-22.04v7.348H184.5v1.042c0,8.063-4.617,14.6-13.209,14.6s-13.212-6.537-13.212-14.6V25.448c0-8.062,4.617-14.6,13.212-14.6,8.153,0,11.911,4.027,12.867,11.111h11.666C194.876,9.245,187.185-.006,171.3-0.006c-16.329,0-25.1,10.848-25.1,24.229V39.777c0,13.38,8.772,24.229,25.1,24.229s25.1-10.848,25.1-24.229V30.164H169.936ZM377.557,63.059h12.825l18.4-46.735,18.4,46.735h12.827L414.964,0.942H402.605Z"/>
</svg>
